HIERARCHY
ROOT mixamorig:Hips
{
	OFFSET -0.000008 104.274872 1.554316
	CHANNELS 6 Xposition Yposition Zposition Xrotation Yrotation Zrotation
	JOINT mixamorig:Spine
	{
		OFFSET -0.000005 10.181595 0.131519
		CHANNELS 6 Xposition Yposition Zposition Xrotation Yrotation Zrotation
		JOINT mixamorig:Spine1
		{
			OFFSET -0.000000 9.893959 -1.470707
			CHANNELS 6 Xposition Yposition Zposition Xrotation Yrotation Zrotation
			JOINT mixamorig:Spine2
			{
				OFFSET -0.000000 9.220757 -1.370641
				CHANNELS 6 Xposition Yposition Zposition Xrotation Yrotation Zrotation
				JOINT mixamorig:Neck
				{
					OFFSET 0.000001 16.740417 -2.049036
					CHANNELS 6 Xposition Yposition Zposition Xrotation Yrotation Zrotation
					JOINT mixamorig:Head
					{
						OFFSET 0.000000 9.617874 1.685006
						CHANNELS 6 Xposition Yposition Zposition Xrotation Yrotation Zrotation
						JOINT mixamorig:HeadTop_End
						{
							OFFSET 0.000002 22.037354 7.501101
							CHANNELS 6 Xposition Yposition Zposition Xrotation Yrotation Zrotation
							End Site
							{
								OFFSET 0.000168 2310.654297 -282.823242
							}
						}
					}
				}
				JOINT mixamorig:RightShoulder
				{
					OFFSET -4.569970 11.014908 -2.160885
					CHANNELS 6 Xposition Yposition Zposition Xrotation Yrotation Zrotation
					JOINT mixamorig:RightArm
					{
						OFFSET -10.592851 -0.524811 -2.232101
						CHANNELS 6 Xposition Yposition Zposition Xrotation Yrotation Zrotation
						JOINT mixamorig:RightForeArm
						{
							OFFSET -27.841511 0.000031 -0.000004
							CHANNELS 6 Xposition Yposition Zposition Xrotation Yrotation Zrotation
							JOINT mixamorig:RightHand
							{
								OFFSET -28.328831 -0.000015 0.000015
								CHANNELS 6 Xposition Yposition Zposition Xrotation Yrotation Zrotation
								JOINT mixamorig:RightHandThumb1
								{
									OFFSET -2.464806 -1.573990 2.681852
									CHANNELS 6 Xposition Yposition Zposition Xrotation Yrotation Zrotation
									JOINT mixamorig:RightHandThumb2
									{
										OFFSET -3.215179 -1.872803 1.924282
										CHANNELS 6 Xposition Yposition Zposition Xrotation Yrotation Zrotation
										JOINT mixamorig:RightHandThumb3
										{
											OFFSET -2.654831 -1.527969 1.512609
											CHANNELS 6 Xposition Yposition Zposition Xrotation Yrotation Zrotation
											JOINT mixamorig:RightHandThumb4
											{
												OFFSET -2.018814 -1.152008 1.108052
												CHANNELS 6 Xposition Yposition Zposition Xrotation Yrotation Zrotation
												End Site
												{
													OFFSET -188.809540 -114.533607 132.431396
												}
											}
										}
									}
								}
								JOINT mixamorig:RightHandIndex1
								{
									OFFSET -9.108284 -0.517868 2.259835
									CHANNELS 6 Xposition Yposition Zposition Xrotation Yrotation Zrotation
									JOINT mixamorig:RightHandIndex2
									{
										OFFSET -3.699989 0.000000 0.001215
										CHANNELS 6 Xposition Yposition Zposition Xrotation Yrotation Zrotation
										JOINT mixamorig:RightHandIndex3
										{
											OFFSET -2.850006 0.000031 -0.000522
											CHANNELS 6 Xposition Yposition Zposition Xrotation Yrotation Zrotation
											JOINT mixamorig:RightHandIndex4
											{
												OFFSET -2.772186 -0.000015 -0.000020
												CHANNELS 6 Xposition Yposition Zposition Xrotation Yrotation Zrotation
												End Site
												{
													OFFSET -277.218445 0.000000 -0.050231
												}
											}
										}
									}
								}
								JOINT mixamorig:RightHandMiddle1
								{
									OFFSET -9.532516 -0.000031 -0.000023
									CHANNELS 6 Xposition Yposition Zposition Xrotation Yrotation Zrotation
									JOINT mixamorig:RightHandMiddle2
									{
										OFFSET -3.700005 -0.000015 0.003713
										CHANNELS 6 Xposition Yposition Zposition Xrotation Yrotation Zrotation
										JOINT mixamorig:RightHandMiddle3
										{
											OFFSET -2.949974 0.000015 -0.002054
											CHANNELS 6 Xposition Yposition Zposition Xrotation Yrotation Zrotation
											JOINT mixamorig:RightHandMiddle4
											{
												OFFSET -2.946640 0.000000 -0.000156
												CHANNELS 6 Xposition Yposition Zposition Xrotation Yrotation Zrotation
												End Site
												{
													OFFSET -294.664337 0.000000 -0.113670
												}
											}
										}
									}
								}
								JOINT mixamorig:RightHandRing1
								{
									OFFSET -9.103600 -0.043076 -1.865134
									CHANNELS 6 Xposition Yposition Zposition Xrotation Yrotation Zrotation
									JOINT mixamorig:RightHandRing2
									{
										OFFSET -3.379288 0.000000 -0.001055
										CHANNELS 6 Xposition Yposition Zposition Xrotation Yrotation Zrotation
										JOINT mixamorig:RightHandRing3
										{
											OFFSET -2.889687 -0.000015 0.000379
											CHANNELS 6 Xposition Yposition Zposition Xrotation Yrotation Zrotation
											JOINT mixamorig:RightHandRing4
											{
												OFFSET -2.638809 -0.000015 0.000941
												CHANNELS 6 Xposition Yposition Zposition Xrotation Yrotation Zrotation
												End Site
												{
													OFFSET -263.880371 0.000000 0.516020
												}
											}
										}
									}
								}
								JOINT mixamorig:RightHandPinky1
								{
									OFFSET -8.076683 -0.486710 -3.806280
									CHANNELS 6 Xposition Yposition Zposition Xrotation Yrotation Zrotation
									JOINT mixamorig:RightHandPinky2
									{
										OFFSET -3.600014 -0.000015 -0.003747
										CHANNELS 6 Xposition Yposition Zposition Xrotation Yrotation Zrotation
										JOINT mixamorig:RightHandPinky3
										{
											OFFSET -2.099983 0.000000 -0.005739
											CHANNELS 6 Xposition Yposition Zposition Xrotation Yrotation Zrotation
											JOINT mixamorig:RightHandPinky4
											{
												OFFSET -2.115768 -0.000031 -0.003680
												CHANNELS 6 Xposition Yposition Zposition Xrotation Yrotation Zrotation
												End Site
												{
													OFFSET -211.577087 0.000000 -0.350686
												}
											}
										}
									}
								}
							}
						}
					}
				}
				JOINT mixamorig:LeftShoulder
				{
					OFFSET 4.570447 11.014725 -2.160855
					CHANNELS 6 Xposition Yposition Zposition Xrotation Yrotation Zrotation
					JOINT mixamorig:LeftArm
					{
						OFFSET 10.592371 -0.524597 -2.232119
						CHANNELS 6 Xposition Yposition Zposition Xrotation Yrotation Zrotation
						JOINT mixamorig:LeftForeArm
						{
							OFFSET 27.841532 -0.000031 0.000026
							CHANNELS 6 Xposition Yposition Zposition Xrotation Yrotation Zrotation
							JOINT mixamorig:LeftHand
							{
								OFFSET 28.328846 -0.000061 0.000022
								CHANNELS 6 Xposition Yposition Zposition Xrotation Yrotation Zrotation
								JOINT mixamorig:LeftHandThumb1
								{
									OFFSET 2.466141 -1.576172 2.681732
									CHANNELS 6 Xposition Yposition Zposition Xrotation Yrotation Zrotation
									JOINT mixamorig:LeftHandThumb2
									{
										OFFSET 3.217812 -1.872070 1.916482
										CHANNELS 6 Xposition Yposition Zposition Xrotation Yrotation Zrotation
										JOINT mixamorig:LeftHandThumb3
										{
											OFFSET 2.656029 -1.528778 1.514513
											CHANNELS 6 Xposition Yposition Zposition Xrotation Yrotation Zrotation
											JOINT mixamorig:LeftHandThumb4
											{
												OFFSET 2.020889 -1.154053 1.115139
												CHANNELS 6 Xposition Yposition Zposition Xrotation Yrotation Zrotation
												End Site
												{
													OFFSET 190.885437 -115.081749 130.048782
												}
											}
										}
									}
								}
								JOINT mixamorig:LeftHandIndex1
								{
									OFFSET 9.109314 -0.518021 2.259871
									CHANNELS 6 Xposition Yposition Zposition Xrotation Yrotation Zrotation
									JOINT mixamorig:LeftHandIndex2
									{
										OFFSET 3.699989 0.000000 -0.000322
										CHANNELS 6 Xposition Yposition Zposition Xrotation Yrotation Zrotation
										JOINT mixamorig:LeftHandIndex3
										{
											OFFSET 2.850006 0.000000 0.000352
											CHANNELS 6 Xposition Yposition Zposition Xrotation Yrotation Zrotation
											JOINT mixamorig:LeftHandIndex4
											{
												OFFSET 2.774864 -0.000031 -0.000027
												CHANNELS 6 Xposition Yposition Zposition Xrotation Yrotation Zrotation
												End Site
												{
													OFFSET 277.486267 0.000000 -0.009857
												}
											}
										}
									}
								}
								JOINT mixamorig:LeftHandMiddle1
								{
									OFFSET 9.533394 0.000061 0.000044
									CHANNELS 6 Xposition Yposition Zposition Xrotation Yrotation Zrotation
									JOINT mixamorig:LeftHandMiddle2
									{
										OFFSET 3.699989 -0.000015 -0.000231
										CHANNELS 6 Xposition Yposition Zposition Xrotation Yrotation Zrotation
										JOINT mixamorig:LeftHandMiddle3
										{
											OFFSET 2.949997 -0.000015 -0.000059
											CHANNELS 6 Xposition Yposition Zposition Xrotation Yrotation Zrotation
											JOINT mixamorig:LeftHandMiddle4
											{
												OFFSET 2.952896 0.000031 0.000063
												CHANNELS 6 Xposition Yposition Zposition Xrotation Yrotation Zrotation
												End Site
												{
													OFFSET 295.289337 0.000000 0.022810
												}
											}
										}
									}
								}
								JOINT mixamorig:LeftHandRing1
								{
									OFFSET 9.104523 -0.042999 -1.865074
									CHANNELS 6 Xposition Yposition Zposition Xrotation Yrotation Zrotation
									JOINT mixamorig:LeftHandRing2
									{
										OFFSET 3.150009 -0.000031 0.000043
										CHANNELS 6 Xposition Yposition Zposition Xrotation Yrotation Zrotation
										JOINT mixamorig:LeftHandRing3
										{
											OFFSET 2.949982 -0.000015 0.000040
											CHANNELS 6 Xposition Yposition Zposition Xrotation Yrotation Zrotation
											JOINT mixamorig:LeftHandRing4
											{
												OFFSET 2.644348 0.000000 0.000057
												CHANNELS 6 Xposition Yposition Zposition Xrotation Yrotation Zrotation
												End Site
												{
													OFFSET 264.434631 0.000000 0.012105
												}
											}
										}
									}
								}
								JOINT mixamorig:LeftHandPinky1
								{
									OFFSET 8.077789 -0.486847 -3.806259
									CHANNELS 6 Xposition Yposition Zposition Xrotation Yrotation Zrotation
									JOINT mixamorig:LeftHandPinky2
									{
										OFFSET 3.599953 0.000031 0.014727
										CHANNELS 6 Xposition Yposition Zposition Xrotation Yrotation Zrotation
										JOINT mixamorig:LeftHandPinky3
										{
											OFFSET 2.100021 0.000015 0.007705
											CHANNELS 6 Xposition Yposition Zposition Xrotation Yrotation Zrotation
											JOINT mixamorig:LeftHandPinky4
											{
												OFFSET 2.125504 0.000031 0.007517
												CHANNELS 6 Xposition Yposition Zposition Xrotation Yrotation Zrotation
												End Site
												{
													OFFSET 212.550781 0.000000 0.625752
												}
											}
										}
									}
								}
							}
						}
					}
				}
			}
		}
	}
	JOINT mixamorig:RightUpLeg
	{
		OFFSET -8.207787 -6.751648 -1.599560
		CHANNELS 6 Xposition Yposition Zposition Xrotation Yrotation Zrotation
		JOINT mixamorig:RightLeg
		{
			OFFSET -0.000002 -44.370117 0.345942
			CHANNELS 6 Xposition Yposition Zposition Xrotation Yrotation Zrotation
			JOINT mixamorig:RightFoot
			{
				OFFSET 0.000003 -44.423679 -3.043532
				CHANNELS 6 Xposition Yposition Zposition Xrotation Yrotation Zrotation
				JOINT mixamorig:RightToeBase
				{
					OFFSET -0.000002 -8.728671 10.710558
					CHANNELS 6 Xposition Yposition Zposition Xrotation Yrotation Zrotation
					JOINT mixamorig:RightToe_End
					{
						OFFSET -0.000001 -0.000679 9.278119
						CHANNELS 6 Xposition Yposition Zposition Xrotation Yrotation Zrotation
						End Site
						{
							OFFSET 0.000000 -0.067690 927.812134
						}
					}
				}
			}
		}
	}
	JOINT mixamorig:LeftUpLeg
	{
		OFFSET 8.207793 -6.751686 -1.599556
		CHANNELS 6 Xposition Yposition Zposition Xrotation Yrotation Zrotation
		JOINT mixamorig:LeftLeg
		{
			OFFSET -0.000004 -44.370014 0.346954
			CHANNELS 6 Xposition Yposition Zposition Xrotation Yrotation Zrotation
			JOINT mixamorig:LeftFoot
			{
				OFFSET -0.000001 -44.423672 -3.044401
				CHANNELS 6 Xposition Yposition Zposition Xrotation Yrotation Zrotation
				JOINT mixamorig:LeftToeBase
				{
					OFFSET -0.000002 -8.728669 10.710558
					CHANNELS 6 Xposition Yposition Zposition Xrotation Yrotation Zrotation
					JOINT mixamorig:LeftToe_End
					{
						OFFSET -0.000003 -0.000679 9.278133
						CHANNELS 6 Xposition Yposition Zposition Xrotation Yrotation Zrotation
						End Site
						{
							OFFSET 0.000000 -0.068021 927.813477
						}
					}
				}
			}
		}
	}
}
MOTION
Frames: 3
Frame Time: 0.033333
0.000006 104.270477 1.554256 0.000010 0.000003 -0.000113 -0.000005 10.181587 0.131522 0.000001 -0.000003 0.000084 -0.000000 9.893967 -1.470711 0.000001 0.000000 -0.000000 -0.000000 9.220802 -1.370642 0.000000 -0.000000 -0.000000 0.000001 16.740433 -2.049030 0.000000 -0.000000 -0.000000 0.000000 9.617859 1.685014 0.000000 0.000000 0.000000 0.000002 22.037384 7.501101 0.000000 -0.000000 0.000000 -4.569968 11.014880 -2.160881 0.000008 0.000001 -0.000038 -10.592878 -0.524726 -2.231948 75.885669 21.673715 -16.977682 -27.841511 0.000009 0.000547 -49.701702 112.333362 69.286115 -28.328823 0.000020 0.000026 -0.000321 -0.000045 0.000005 -2.464470 -1.573694 2.682302 -52.947169 -174.191639 -25.745326 -3.215266 -1.872546 1.924642 150.482646 31.340538 5.789373 -2.654971 -1.527861 1.513053 143.524309 28.174872 -28.515546 -2.018827 -1.152014 1.108061 -0.000003 -0.000005 0.000002 -9.108397 -0.517564 2.260124 102.820151 13.844680 -17.358311 -3.700066 0.000312 0.001537 103.932776 10.836899 -13.798626 -2.850083 0.000376 -0.000221 103.257318 10.174257 -12.828747 -2.772187 -0.000000 -0.000022 -0.000001 -0.000000 0.000000 -9.532615 0.000252 0.000207 86.208537 16.299196 -15.401486 -3.700068 0.000328 0.003946 87.836362 12.582306 -12.027713 -2.950067 0.000318 -0.001824 89.720921 12.733022 -12.664498 -2.946618 0.000002 -0.000153 0.000000 -0.000001 0.000001 -9.103727 -0.042802 -1.864925 77.124119 21.516588 -17.188984 -3.379353 0.000286 -0.000863 80.164359 14.016383 -11.828067 -2.889761 0.000327 0.000597 85.817106 9.913938 -9.262535 -2.638803 0.000001 0.000946 0.000001 0.000001 0.000001 -8.076780 -0.486444 -3.806105 65.850380 21.821527 -14.123956 -3.600065 0.000216 -0.003620 65.317427 15.164389 -9.499607 -2.100054 0.000260 -0.005569 68.340694 9.705777 -6.437645 -2.115771 -0.000056 -0.003672 -0.000001 0.000000 -0.000005 4.570446 11.014691 -2.160851 -0.000018 0.000010 -0.000021 10.592505 -0.524546 -2.232385 55.976327 -63.271642 36.257516 27.841742 -0.000091 -0.000083 235.150764 -73.597173 249.840124 28.328831 -0.000012 0.000021 0.000022 -0.000087 0.000000 2.466148 -1.576174 2.681882 44.535514 126.789020 -102.255677 3.217817 -1.871997 1.916535 84.544969 142.623516 -139.378165 2.656065 -1.528716 1.514626 -75.055876 8.824359 22.429889 2.020894 -1.154080 1.115150 0.000002 0.000001 0.000004 9.109261 -0.517809 2.260127 -107.942855 -15.555226 -21.262845 3.699932 0.000201 -0.000093 74.194378 -164.527878 159.619445 2.849969 0.000215 0.000577 79.349525 -169.491486 167.348172 2.774878 -0.000047 -0.000028 -0.000001 0.000001 0.000001 9.533365 0.000188 0.000286 -90.116580 -15.043097 -15.068319 3.699967 0.000172 0.000022 -92.706629 -14.915181 -15.626599 2.949982 0.000165 0.000192 -88.549707 -7.996372 -7.799153 2.952861 -0.000016 0.000063 0.000002 0.000002 -0.000004 9.104383 -0.042824 -1.864852 -119.226894 -31.086711 -50.753674 3.150066 0.000293 -0.000048 -232.318557 -7.250244 14.703019 2.949921 0.000322 -0.000128 -250.784985 10.168931 -14.274770 2.644318 0.000030 0.000060 0.000002 -0.000001 -0.000000 8.077626 -0.486626 -3.806048 -133.003864 -23.989130 -52.410825 3.599909 0.000431 0.014626 -221.702982 6.253905 -15.408869 2.099889 0.000332 0.007537 -244.250406 15.384542 -23.855986 2.125517 0.000000 0.007508 0.000003 -0.000003 -0.000002 -8.207786 -6.751667 -1.599560 -0.077001 -0.000003 0.000080 -0.000002 -44.370110 0.345938 0.153719 -0.000000 -0.000000 0.000000 -44.423679 -3.043532 -0.076700 0.000000 -0.000002 -0.000006 -8.728667 10.710559 -0.000009 -0.000000 -0.000000 -0.000001 -0.000679 9.278123 0.000000 -0.000000 -0.000000 8.207792 -6.751710 -1.599556 -0.074518 -0.000003 0.000081 -0.000002 -44.370014 0.346960 0.148822 0.000002 0.000000 -0.000001 -44.423664 -3.044403 -0.074314 0.000000 -0.000002 -0.000004 -8.728671 10.710558 0.000007 -0.000000 -0.000000 0.000000 -0.000680 9.278137 -0.000000 0.000000 -0.000001 
0.000006 104.270477 1.554256 0.000010 0.000003 -0.000113 -0.000005 10.181587 0.131522 0.000001 -0.000003 0.000084 -0.000000 9.893967 -1.470711 0.000001 0.000000 -0.000000 -0.000000 9.220802 -1.370642 0.000000 -0.000000 -0.000000 0.000001 16.740433 -2.049030 0.000000 -0.000000 -0.000000 0.000000 9.617859 1.685014 0.000000 0.000000 0.000000 0.000002 22.037384 7.501101 0.000000 -0.000000 0.000000 -4.569968 11.014880 -2.160881 0.000008 0.000001 -0.000038 -10.592877 -0.524729 -2.231951 75.864619 20.831599 -16.306139 -27.841520 -0.000005 0.000561 -50.306027 111.368803 69.052092 -28.328821 0.000020 0.000032 -0.000317 -0.000044 0.000007 -2.464462 -1.573690 2.682303 -53.071062 -174.589635 -26.287153 -3.215282 -1.872568 1.924652 150.381696 31.294598 5.548075 -2.654969 -1.527865 1.513047 143.444081 28.185938 -28.501744 -2.018826 -1.152005 1.108057 -0.000003 -0.000005 -0.000001 -9.108384 -0.517548 2.260144 102.738845 13.698555 -17.152002 -3.700066 0.000321 0.001541 104.274599 10.603661 -13.584704 -2.850077 0.000375 -0.000243 103.489715 9.900405 -12.536203 -2.772180 -0.000013 -0.000023 0.000001 -0.000001 0.000000 -9.532603 0.000264 0.000212 85.697352 16.281919 -15.249893 -3.700086 0.000324 0.003952 88.060782 12.564028 -12.056940 -2.950079 0.000316 -0.001807 89.804365 12.545597 -12.496018 -2.946624 0.000002 -0.000151 0.000006 -0.000001 -0.000000 -9.103718 -0.042779 -1.864924 76.329051 21.334499 -16.804205 -3.379360 0.000278 -0.000861 80.265699 14.067716 -11.892631 -2.889777 0.000322 0.000612 85.957214 9.789948 -9.169450 -2.638801 -0.000000 0.000937 -0.000001 -0.000000 -0.000000 -8.076776 -0.486429 -3.806097 65.166657 21.517413 -13.743422 -3.600062 0.000201 -0.003622 65.215534 14.979952 -9.362445 -2.100027 0.000250 -0.005574 68.423722 9.483287 -6.296337 -2.115778 -0.000055 -0.003684 -0.000001 0.000007 -0.000003 4.570446 11.014691 -2.160851 -0.000018 0.000010 -0.000021 10.592511 -0.524547 -2.232380 57.369484 -64.945072 38.396007 27.841732 -0.000062 -0.000101 235.378482 -73.993256 249.713055 28.328833 -0.000014 0.000016 0.000019 -0.000089 -0.000000 2.466175 -1.576123 2.681887 35.913053 137.123397 -101.168031 3.217854 -1.871987 1.916533 75.279114 146.366214 -135.136358 2.656064 -1.528708 1.514674 -71.300058 0.992066 19.451918 2.020903 -1.154080 1.115154 0.000001 0.000000 0.000001 9.109241 -0.517779 2.260120 -108.832740 -17.687256 -24.527793 3.699910 0.000193 -0.000095 75.200519 -163.650294 158.855215 2.849963 0.000235 0.000600 79.217914 -169.723412 167.597993 2.774881 -0.000014 -0.000026 0.000001 -0.000001 -0.000001 9.533370 0.000197 0.000293 -91.066892 -15.981072 -16.272473 3.699963 0.000167 0.000027 -90.074404 -13.756753 -13.772837 2.949990 0.000127 0.000173 -85.363691 -6.234086 -5.751850 2.952859 -0.000017 0.000050 0.000001 0.000001 -0.000000 9.104374 -0.042853 -1.864855 -121.043028 -38.611626 -63.574158 3.150001 0.000304 -0.000100 -246.960325 -3.099335 4.687087 2.949912 0.000282 -0.000162 -264.218765 14.653572 -16.191264 2.644315 0.000017 0.000056 0.000000 0.000001 0.000001 8.077593 -0.486635 -3.806044 -136.917781 -27.839470 -64.428061 3.599842 0.000402 0.014561 -236.350828 12.075599 -21.777773 2.099885 0.000303 0.007501 -257.316148 21.419439 -26.325579 2.125501 -0.000020 0.007527 -0.000000 0.000000 0.000001 -8.207786 -6.751667 -1.599560 -0.077001 -0.000003 0.000080 -0.000002 -44.370110 0.345938 0.153719 -0.000000 -0.000000 0.000000 -44.423679 -3.043532 -0.076700 0.000000 -0.000002 -0.000006 -8.728667 10.710559 -0.000009 -0.000000 -0.000000 -0.000001 -0.000679 9.278123 0.000000 -0.000000 -0.000000 8.207792 -6.751710 -1.599556 -0.074518 -0.000003 0.000081 -0.000002 -44.370014 0.346960 0.148822 0.000002 0.000000 -0.000001 -44.423664 -3.044403 -0.074314 0.000000 -0.000002 -0.000004 -8.728671 10.710558 0.000007 -0.000000 -0.000000 0.000000 -0.000680 9.278137 -0.000000 0.000000 -0.000001 
0.000006 104.270477 1.554256 0.000010 0.000003 -0.000113 -0.000005 10.181587 0.131522 0.000001 -0.000003 0.000084 -0.000000 9.893967 -1.470711 0.000001 0.000000 -0.000000 -0.000000 9.220802 -1.370642 0.000000 -0.000000 -0.000000 0.000001 16.740433 -2.049030 0.000000 -0.000000 -0.000000 0.000000 9.617859 1.685014 0.000000 0.000000 0.000000 0.000002 22.037384 7.501101 0.000000 -0.000000 0.000000 -4.569968 11.014880 -2.160881 0.000008 0.000001 -0.000038 -10.592875 -0.524746 -2.231918 76.001243 25.814463 -20.302065 -27.841513 0.000009 0.000544 -50.520355 109.497857 67.455863 -28.328814 0.000004 0.000025 -0.000319 -0.000044 0.000007 -2.464469 -1.573684 2.682294 -53.814466 -176.842545 -29.725239 -3.215272 -1.872576 1.924630 150.763326 31.115770 3.809709 -2.654969 -1.527871 1.513050 143.736045 28.106450 -29.143932 -2.018826 -1.152020 1.108039 -0.000002 -0.000001 0.000002 -9.108380 -0.517542 2.260141 102.766637 13.977612 -17.507069 -3.700070 0.000326 0.001536 104.063471 10.658051 -13.602943 -2.850078 0.000372 -0.000221 102.949078 9.883080 -12.394558 -2.772177 -0.000017 -0.000023 -0.000000 0.000002 -0.000001 -9.532582 0.000266 0.000184 85.512049 16.969644 -15.839784 -3.700083 0.000315 0.003946 88.158338 13.034842 -12.533121 -2.950075 0.000319 -0.001812 89.979546 12.772464 -12.760751 -2.946640 0.000000 -0.000151 -0.000005 -0.000000 0.000000 -9.103713 -0.042782 -1.864919 76.435472 22.163228 -17.497131 -3.379352 0.000275 -0.000863 80.413436 14.487272 -12.279826 -2.889777 0.000343 0.000617 86.559035 9.765870 -9.243352 -2.638796 -0.000002 0.000935 -0.000002 0.000000 0.000001 -8.076773 -0.486429 -3.806103 65.285933 21.962738 -14.065594 -3.600080 0.000218 -0.003607 65.992004 15.081423 -9.568752 -2.100015 0.000292 -0.005579 69.431783 9.479146 -6.413234 -2.115768 -0.000056 -0.003685 -0.000002 -0.000001 -0.000003 4.570446 11.014691 -2.160851 -0.000018 0.000010 -0.000021 10.592509 -0.524543 -2.232387 59.318841 -64.328634 39.405789 27.841745 -0.000067 -0.000098 234.099707 -74.940644 247.340766 28.328833 -0.000013 0.000033 0.000022 -0.000089 -0.000000 2.466213 -1.576115 2.681886 34.905214 141.413043 -103.259394 3.217857 -1.871957 1.916542 70.771681 150.692893 -134.371500 2.656067 -1.528693 1.514673 -62.118583 -11.813067 15.054609 2.020906 -1.154081 1.115146 0.000001 -0.000001 0.000002 9.109246 -0.517800 2.260102 -107.237809 -18.497040 -24.917575 3.699926 0.000196 -0.000077 75.821664 -163.580736 158.997310 2.849953 0.000214 0.000590 78.151585 -169.335689 166.886807 2.774888 -0.000045 -0.000021 0.000002 0.000001 -0.000000 9.533359 0.000209 0.000289 -89.466551 -16.843134 -16.684525 3.699962 0.000155 0.000028 -88.037532 -13.632034 -13.175463 2.950005 0.000139 0.000162 -84.056891 -6.491048 -5.853532 2.952870 -0.000020 0.000052 -0.000000 -0.000000 0.000001 9.104368 -0.042921 -1.864884 -129.073063 -52.624015 -92.159182 3.150025 0.000312 -0.000084 -248.663856 -1.894885 2.776507 2.949912 0.000282 -0.000156 -260.940820 14.579652 -17.053003 2.644333 0.000016 0.000059 -0.000000 0.000000 -0.000000 8.077570 -0.486762 -3.806092 -154.789326 -38.347100 -114.054488 3.599869 0.000386 0.014573 -237.138485 13.235952 -23.524474 2.099861 0.000316 0.007512 -251.676789 22.898371 -31.050159 2.125505 -0.000014 0.007515 0.000000 -0.000000 -0.000001 -8.207786 -6.751667 -1.599560 -0.077001 -0.000003 0.000080 -0.000002 -44.370110 0.345938 0.153719 -0.000000 -0.000000 0.000000 -44.423679 -3.043532 -0.076700 0.000000 -0.000002 -0.000006 -8.728667 10.710559 -0.000009 -0.000000 -0.000000 -0.000001 -0.000679 9.278123 0.000000 -0.000000 -0.000000 8.207792 -6.751710 -1.599556 -0.074518 -0.000003 0.000081 -0.000002 -44.370014 0.346960 0.148822 0.000002 0.000000 -0.000001 -44.423664 -3.044403 -0.074314 0.000000 -0.000002 -0.000004 -8.728671 10.710558 0.000007 -0.000000 -0.000000 0.000000 -0.000680 9.278137 -0.000000 0.000000 -0.000001 
